HIERARCHY
ROOT Hips
{
	OFFSET	0.00	0.00	0.00
	CHANNELS 6 Xposition Yposition Zposition Zrotation Xrotation Yrotation
	JOINT LeftUpLeg
	{
		OFFSET	 0.126116	-0.014019	-0.065224
		CHANNELS 3 Zrotation Xrotation Yrotation
		JOINT LeftLeg
		{
			OFFSET	 0.000000	 0.000000	 0.569914
			CHANNELS 3 Zrotation Xrotation Yrotation
			JOINT LeftFoot
			{
				OFFSET	 0.000000	 0.000000	 0.544423
				CHANNELS 3 Zrotation Xrotation Yrotation
				JOINT LeftToeBase
				{
					OFFSET	 0.000000	 0.000000	 0.207117
					CHANNELS 3 Zrotation Xrotation Yrotation
					End Site
					{
						OFFSET	 0.000000	 0.000000	 0.207117
					}
				}
			}
		}
	}
	JOINT RightUpLeg
	{
		OFFSET	-0.124023	-0.008373	-0.065224
		CHANNELS 3 Zrotation Xrotation Yrotation
		JOINT RightLeg
		{
			OFFSET	 0.000000	 0.000000	 0.570047
			CHANNELS 3 Zrotation Xrotation Yrotation
			JOINT RightFoot
			{
				OFFSET	 0.000000	 0.000000	 0.544354
				CHANNELS 3 Zrotation Xrotation Yrotation
				JOINT RightToeBase
				{
					OFFSET	 0.000000	 0.000000	 0.207540
					CHANNELS 3 Zrotation Xrotation Yrotation
					End Site
					{
						OFFSET	 0.000000	 0.000000	 0.207540
					}
				}
			}
		}
	}
	JOINT Spine
	{
		OFFSET	 0.000184	-0.007763	 0.117403
		CHANNELS 3 Zrotation Xrotation Yrotation
		JOINT Spine1
		{
			OFFSET	 0.000000	 0.000000	 0.137269
			CHANNELS 3 Zrotation Xrotation Yrotation
			JOINT Spine2
			{
				OFFSET	 0.000000	 0.000000	 0.156879
				CHANNELS 3 Zrotation Xrotation Yrotation
				JOINT LeftShoulder
				{
					OFFSET	 0.080501	-0.002496	 0.160144
					CHANNELS 3 Zrotation Xrotation Yrotation
					JOINT LeftArm
					{
						OFFSET	 0.000000	 0.000000	 0.164363
						CHANNELS 3 Zrotation Xrotation Yrotation
						JOINT LeftForeArm
						{
							OFFSET	 0.000000	 0.000000	 0.364576
							CHANNELS 3 Zrotation Xrotation Yrotation
							JOINT LeftHand
							{
								OFFSET	 0.000000	 0.000000	 0.360812
								CHANNELS 3 Zrotation Xrotation Yrotation
								JOINT LeftHandIndex1
								{
									OFFSET	 0.000000	 0.000000	 0.086006
									CHANNELS 3 Zrotation Xrotation Yrotation
									JOINT LeftHandIndex2
									{
										OFFSET	 0.000000	 0.000000	 0.047236
										CHANNELS 3 Zrotation Xrotation Yrotation
										JOINT LeftHandIndex3
										{
											OFFSET	-0.004284	-0.000551	 0.038166
											CHANNELS 3 Zrotation Xrotation Yrotation
											End Site
											{
												OFFSET	-0.004284	-0.000551	 0.038166
											}
										}
									}
								}
							}
						}
					}
				}
				JOINT Neck
				{
					OFFSET	 0.000000	 0.000000	 0.176489
					CHANNELS 3 Zrotation Xrotation Yrotation
					JOINT Head
					{
						OFFSET	 0.000000	-0.001747	 0.077940
						CHANNELS 3 Zrotation Xrotation Yrotation
						End Site
						{
							OFFSET	 0.000000	-0.001747	 0.077940
						}
					}
				}
				JOINT RightShoulder
				{
					OFFSET	-0.080363	 0.000306	 0.159706
					CHANNELS 3 Zrotation Xrotation Yrotation
					JOINT RightArm
					{
						OFFSET	 0.000000	 0.000000	 0.164196
						CHANNELS 3 Zrotation Xrotation Yrotation
						JOINT RightForeArm
						{
							OFFSET	 0.000000	 0.000000	 0.365611
							CHANNELS 3 Zrotation Xrotation Yrotation
							JOINT RightHand
							{
								OFFSET	 0.000000	 0.000000	 0.360648
								CHANNELS 3 Zrotation Xrotation Yrotation
								JOINT RightHandIndex1
								{
									OFFSET	 0.000000	 0.000000	 0.069977
									CHANNELS 3 Zrotation Xrotation Yrotation
									JOINT RightHandIndex2
									{
										OFFSET	 0.000000	 0.000000	 0.052305
										CHANNELS 3 Zrotation Xrotation Yrotation
										JOINT RightHandIndex3
										{
											OFFSET	 0.009002	-0.000782	 0.042196
											CHANNELS 3 Zrotation Xrotation Yrotation
											End Site
											{
												OFFSET	 0.009002	-0.000782	 0.042196
											}
										}
									}
								}
							}
						}
					}
				}
			}
		}
	}
}
MOTION
Frames:    5
Frame Time: 0.03333334
 0.825264	-0.639200	-1.062777	 107.210100	 0.639213	 3.600444	 5.055934	-3.864286	 176.456000	-11.518560	-35.248310	-5.571740	 171.963500	 86.732180	 179.305100	-2.377953	 30.089640	-0.035779	 1.820027	-12.604830	 178.824900	 4.039423	-50.161460	 6.327456	-175.062600	 82.248500	-178.984900	 2.403654	 22.151140	-0.130058	-0.860172	 0.397278	-1.767862	-0.387172	-2.423543	-0.198322	-0.007263	-4.655606	-0.000774	-91.809240	 77.651780	 179.106300	 46.538750	 74.102660	-49.186470	-10.013880	-4.177871	-20.977900	 5.951416	-2.223321	-5.332797	-3.812334	 37.924440	-2.927599	-2.450526	 36.184240	 0.754587	-1.378229	 35.397820	-2.634230	 0.603380	 6.793020	-3.278085	 0.360041	-14.526330	-1.495925	 89.766750	 79.223790	-179.662000	-46.049720	 74.564780	 48.056870	 4.620599	-9.520681	 33.019360	-13.440100	-3.194634	 9.597274	 6.437017	 35.671460	-0.771858	 2.830251	 35.756010	-7.813440	-2.350882	 35.473990	 5.254307
 0.835539	-0.635520	-1.065204	 101.655100	 0.656669	 3.704306	 5.055819	-3.961677	 176.474700	-11.261920	-33.720220	-5.162079	 171.885700	 86.610710	 179.445500	-2.377756	 30.127650	-0.036624	 1.769814	-12.654970	 178.935500	 3.654327	-47.613860	 5.716819	-175.328600	 82.144620	-178.728700	 2.403737	 22.105280	-0.130981	-0.858291	 0.475370	-1.833663	-0.369786	-2.369295	-0.211417	-0.012248	-4.472531	-0.001286	-91.809810	 77.624140	 179.118700	 36.813880	 69.877240	-39.868070	-7.974300	-3.991656	-19.812820	 5.915442	-2.217892	-5.334469	-3.812334	 37.924440	-2.927599	-2.450526	 36.184240	 0.754587	-1.378229	 35.397820	-2.634230	 0.551974	 6.076952	-3.204369	 0.315305	-13.424210	-1.599587	 89.765580	 79.252210	-179.646200	-36.438850	 70.313290	 39.116070	 4.225101	-7.825141	 30.775420	-11.305860	-3.196164	 9.596555	 6.437017	 35.671460	-0.771858	 2.830251	 35.756010	-7.813440	-2.350882	 35.473990	 5.254307
 0.837334	-0.634242	-1.065536	 101.823800	 0.691112	 3.693920	 5.041677	-4.067567	 176.493400	-11.180400	-33.853120	-5.142213	 171.976000	 86.470640	 179.420500	-2.376991	 30.270910	-0.039800	 1.764168	-12.704660	 178.984700	 3.676418	-47.712160	 5.746775	-175.546600	 81.975200	-178.505500	 2.403638	 22.160560	-0.129866	-0.891144	 0.514539	-1.872140	-0.400594	-2.353268	-0.204722	-0.073092	-4.454881	-0.007658	-91.809780	 77.600210	 179.140400	 36.673190	 69.863840	-39.661380	-8.037447	-4.008333	-20.084460	 5.868385	-2.213987	-5.335896	-3.812334	 37.924440	-2.927599	-2.450526	 36.184240	 0.754587	-1.378229	 35.397820	-2.634230	 0.489329	 6.021647	-3.214738	 0.252168	-13.336670	-1.592823	 89.765030	 79.273610	-179.642400	-36.347270	 70.386350	 39.078160	 4.279767	-7.779670	 30.527470	-11.336610	-3.196537	 9.596345	 6.437017	 35.671460	-0.771858	 2.830251	 35.756010	-7.813440	-2.350882	 35.473990	 5.254307
 0.831476	-0.634393	-1.065908	 101.967800	 0.742898	 3.722214	 5.024554	-4.195802	 176.513800	-11.088550	-34.024430	-5.123693	 171.976600	 86.310290	 179.491900	-2.376349	 30.391070	-0.042466	 1.796132	-12.778590	 178.974800	 3.754791	-47.892000	 5.847178	-175.780100	 81.761720	-178.222200	 2.403624	 22.171330	-0.129648	-0.933622	 0.518172	-1.915470	-0.411549	-2.345870	-0.226435	-0.103423	-4.447267	-0.010828	-91.809490	 77.595150	 179.152200	 36.602170	 69.824360	-39.585950	-8.112786	-4.014800	-20.349420	 5.808839	-2.209508	-5.337380	-3.812334	 37.924440	-2.927599	-2.450526	 36.184240	 0.754587	-1.378229	 35.397820	-2.634230	 0.465408	 5.901847	-3.337102	 0.238611	-13.202280	-1.446200	 89.764400	 79.278920	-179.630200	-36.273710	 70.443210	 39.030690	 4.316127	-7.727418	 30.279110	-11.366960	-3.197811	 9.595641	 6.437017	 35.671460	-0.771858	 2.830251	 35.756010	-7.813440	-2.350882	 35.473990	 5.254307
 0.825278	-0.634519	-1.066258	 102.055000	 0.786630	 3.740457	 5.005857	-4.319021	 176.536600	-10.993200	-34.197450	-5.103612	 171.957900	 86.159620	 179.584500	-2.375710	 30.510470	-0.045120	 1.863155	-12.897830	 178.968900	 3.883320	-48.166980	 6.021945	-176.070500	 81.558590	-177.843500	 2.403522	 22.227960	-0.128502	-0.973929	 0.532685	-1.929515	-0.410376	-2.361490	-0.255612	-0.114066	-4.467297	-0.011960	-91.808460	 77.612820	 179.162700	 36.587810	 69.767760	-39.617900	-8.187033	-4.010651	-20.562280	 5.749641	-2.204966	-5.338814	-3.812334	 37.924440	-2.927599	-2.450526	 36.184240	 0.754587	-1.378229	 35.397820	-2.634230	 0.469049	 5.725644	-3.482785	 0.242435	-13.065420	-1.311295	 89.764340	 79.259810	-179.622200	-36.262520	 70.480800	 39.065610	 4.331296	-7.686654	 30.067110	-11.411810	-3.199470	 9.594735	 6.437017	 35.671460	-0.771858	 2.830251	 35.756010	-7.813440	-2.350882	 35.473990	 5.254307
